<?xml version="1.0" encoding="UTF-8" standalone="no"?>
<!-- Created with Inkscape (http://www.inkscape.org/) -->

<svg
   xmlns:dc="http://purl.org/dc/elements/1.1/"
   xmlns:cc="http://creativecommons.org/ns#"
   xmlns:rdf="http://www.w3.org/1999/02/22-rdf-syntax-ns#"
   xmlns:svg="http://www.w3.org/2000/svg"
   xmlns="http://www.w3.org/2000/svg"
   xmlns:sodipodi="http://sodipodi.sourceforge.net/DTD/sodipodi-0.dtd"
   xmlns:inkscape="http://www.inkscape.org/namespaces/inkscape"
   id="svg2"
   version="1.1"
   inkscape:version="0.48.4 r9939"
   width="1209.7375"
   height="1120.1175"
   xml:space="preserve"
   sodipodi:docname="Vistas_ExpressDelNorte_cc.pdf"><metadata
     id="metadata8"><rdf:RDF><cc:Work
         rdf:about=""><dc:format>image/svg+xml</dc:format><dc:type
           rdf:resource="http://purl.org/dc/dcmitype/StillImage" /><dc:title></dc:title></cc:Work></rdf:RDF></metadata><defs
     id="defs6"><clipPath
       clipPathUnits="userSpaceOnUse"
       id="clipPath34"><path
         d="m 0,896.094 967.79,0 L 967.79,0 0,0 0,896.094 z"
         id="path36" /></clipPath></defs><sodipodi:namedview
     pagecolor="#ffffff"
     bordercolor="#666666"
     borderopacity="1"
     objecttolerance="10"
     gridtolerance="10"
     guidetolerance="10"
     inkscape:pageopacity="0"
     inkscape:pageshadow="2"
     inkscape:window-width="640"
     inkscape:window-height="480"
     id="namedview4"
     showgrid="false"
     inkscape:zoom="0.21069217"
     inkscape:cx="604.86877"
     inkscape:cy="560.05878"
     inkscape:window-x="0"
     inkscape:window-y="30"
     inkscape:window-maximized="0"
     inkscape:current-layer="g10" /><g
     id="g10"
     inkscape:groupmode="layer"
     inkscape:label="Vistas_ExpressDelNorte_cc"
     transform="matrix(1.25,0,0,-1.25,0,1120.1175)"><g
       id="g14"
       transform="translate(632.7727,678.7336)"><path
         d="M 0,0 -25.122,-129.201 -412.725,69.984 0,0 z"
         style="fill:#ededed;fill-opacity:1;fill-rule:nonzero;stroke:none"
         id="path16" /></g><g
       id="g18"
       transform="translate(632.7727,678.7336)"><path
         d="M 0,0 111.256,78.956 -412.725,69.984 0,0 z"
         style="fill:#ffffff;fill-opacity:1;fill-rule:nonzero;stroke:none"
         id="path20" /></g><g
       id="g22"
       transform="translate(607.6503,549.5328)"><path
         d="m 0,0 -39.478,98.695 -95.106,-12.561 -17.945,-36.786 42.84,9.104 L 0,0 z"
         style="fill:#9d9d9c;fill-opacity:1;fill-rule:nonzero;stroke:none"
         id="path24" /></g><g
       id="g26"
       transform="translate(220.048,748.7173)"><path
         d="m 0,0 200.979,-184.829 147.145,84.34 L 0,0 z"
         style="fill:#ffffff;fill-opacity:1;fill-rule:nonzero;stroke:none"
         id="path28" /></g><g
       id="g30"><g
         id="g32"
         clip-path="url(#clipPath34)"><g
           id="g38"
           transform="translate(177.1442,416.1049)"><path
             d="m 0,0 c 0.057,1.098 0.087,1.937 0.087,2.515 0,6.824 -1.533,11.942 -4.598,15.355 -3.066,3.413 -7.172,5.119 -12.319,5.119 -5.148,0 -9.76,-1.939 -13.837,-5.813 -4.077,-3.875 -6.84,-9.6 -8.285,-17.176 L 0,0 z m 20.994,-15.183 -62.461,0 c -0.058,-0.983 -0.087,-1.734 -0.087,-2.255 0,-6.131 1.749,-11.076 5.248,-14.835 3.499,-3.76 7.765,-5.638 12.797,-5.638 8.269,0 14.718,4.279 19.345,12.839 l 22.296,-3.731 C 13.794,-37.768 7.995,-44.491 0.738,-48.972 c -7.259,-4.483 -15.399,-6.723 -24.421,-6.723 -12.378,0 -22.441,3.917 -30.19,11.754 -7.751,7.836 -11.625,18.204 -11.625,31.1 0,12.608 3.499,23.828 10.497,33.661 9.543,13.302 23.163,19.952 40.861,19.952 11.278,0 20.241,-3.484 26.893,-10.452 6.65,-6.971 9.976,-16.731 9.976,-29.28 0,-6.015 -0.578,-11.422 -1.735,-16.223"
             style="fill:#ffffff;fill-opacity:1;fill-rule:nonzero;stroke:none"
             id="path40" /></g><g
           id="g42"
           transform="translate(141.8882,419.0478)"><path
             d="m 0,0 32.398,0 c -0.06,5.828 -1.352,10.188 -3.843,12.961 -2.504,2.787 -5.817,4.142 -10.129,4.142 -4.403,0 -8.267,-1.637 -11.81,-5.004 C 3.646,9.276 1.427,5.216 0,0 m 38.049,-5.886 -45.302,0 0.667,3.495 c 1.554,8.155 4.632,14.466 9.147,18.757 4.625,4.395 9.963,6.623 15.865,6.623 5.994,0 10.874,-2.051 14.509,-6.095 3.55,-3.956 5.351,-9.782 5.351,-17.322 0,-0.614 -0.03,-1.503 -0.091,-2.669 L 38.049,-5.886 z M 21.115,34.887 c -16.846,0 -29.43,-6.125 -38.469,-18.725 -6.597,-9.269 -9.945,-20.02 -9.945,-31.946 0,-12.036 3.625,-21.803 10.774,-29.031 7.24,-7.321 16.431,-10.88 28.098,-10.88 8.427,0 16.122,2.113 22.875,6.283 5.768,3.563 10.613,8.744 14.441,15.435 l -16.266,2.722 c -5.091,-8.325 -12.106,-12.542 -20.877,-12.542 -5.86,0 -10.89,2.213 -14.95,6.577 -4.006,4.302 -6.037,9.968 -6.037,16.84 0,0.56 0.029,1.369 0.092,2.428 l 0.164,2.769 62.863,0 c 0.773,3.998 1.164,8.454 1.164,13.28 0,11.709 -3.083,20.875 -9.163,27.248 -6.128,6.421 -14.228,9.542 -24.764,9.542 m -9.542,-96.468 c -13.136,0 -23.997,4.249 -32.283,12.628 -8.277,8.369 -12.475,19.528 -12.475,33.169 0,13.174 3.716,25.073 11.043,35.368 10.087,14.063 24.639,21.188 43.257,21.188 12.06,0 21.824,-3.823 29.023,-11.363 7.16,-7.505 10.79,-18.04 10.79,-31.312 0,-6.219 -0.611,-11.908 -1.817,-16.913 l -0.543,-2.253 -61.915,0 c 0.12,-5.079 1.579,-9.057 4.451,-12.141 2.943,-3.164 6.424,-4.701 10.642,-4.701 7.167,0 12.648,3.694 16.758,11.295 l 1,1.85 28.243,-4.725 -1.71,-3.536 C 51.472,-42.462 45.249,-49.66 37.54,-54.419 29.845,-59.171 21.108,-61.581 11.573,-61.581"
             style="fill:#ffffff;fill-opacity:1;fill-rule:nonzero;stroke:none"
             id="path44" /></g><g
           id="g46"
           transform="translate(249.67,388.4304)"><path
             d="m 0,0 -22.903,-25.852 -30.536,0 42.595,47.192 -23.423,44.939 26.459,0 13.447,-26.287 23.336,26.287 30.277,0 -42.769,-47.801 23.25,-44.33 -26.46,0 L 0,0 z"
             style="fill:#ffffff;fill-opacity:1;fill-rule:nonzero;stroke:none"
             id="path48" /></g><g
           id="g50"
           transform="translate(264.7402,365.5208)"><path
             d="M 0,0 19.796,0 -2.142,41.829 37.6,86.245 l -22.372,0 -25.318,-28.518 -14.588,28.518 -19.807,0 L -22.359,43.796 -61.889,0 -39.297,0 -14.419,28.083 0,0 z m 29.529,-5.886 -33.123,0 -12.128,23.622 -20.927,-23.622 -38.481,0 45.661,50.59 -24.721,47.427 33.113,0 12.304,-24.055 21.355,24.055 38.182,0 L 4.967,40.946 29.529,-5.886 z"
             style="fill:#ffffff;fill-opacity:1;fill-rule:nonzero;stroke:none"
             id="path52" /></g><g
           id="g54"
           transform="translate(339.545,401.8775)"><path
             d="m 0,0 c 0,-7.173 1.749,-12.74 5.249,-16.7 3.499,-3.962 7.619,-5.944 12.362,-5.944 4.106,0 8.068,1.489 11.885,4.469 3.817,2.978 6.984,7.922 9.5,14.834 2.515,6.91 3.773,13.316 3.773,19.217 0,6.881 -1.648,12.158 -4.944,15.832 -3.298,3.672 -7.491,5.508 -12.58,5.508 -4.743,0 -9.065,-1.691 -12.969,-5.075 C 8.372,28.758 5.349,23.783 3.21,17.219 1.07,10.655 0,4.914 0,0 m -15.008,52.831 23.597,0 -1.995,-9.455 c 5.031,4.163 9.744,7.142 14.14,8.935 4.395,1.792 9.109,2.689 14.14,2.689 9.659,0 17.423,-3.325 23.294,-9.976 5.869,-6.651 8.805,-16.569 8.805,-29.756 0,-16.6 -5.061,-30.623 -15.182,-42.075 -8.675,-9.775 -18.941,-14.661 -30.797,-14.661 -12.203,0 -21.427,4.945 -27.674,14.834 l -9.977,-47.801 -24.897,0 26.546,127.266 z"
             style="fill:#ffffff;fill-opacity:1;fill-rule:nonzero;stroke:none"
             id="path56" /></g><g
           id="g58"
           transform="translate(364.7904,436.1506)"><path
             d="m 0,0 c -4.049,0 -7.66,-1.425 -11.042,-4.355 -3.477,-3.014 -6.234,-7.592 -8.195,-13.611 -2.034,-6.238 -3.065,-11.725 -3.065,-16.307 0,-6.402 1.517,-11.365 4.51,-14.752 2.942,-3.331 6.264,-4.949 10.157,-4.949 3.465,0 6.761,1.257 10.074,3.845 3.358,2.62 6.233,7.169 8.546,13.522 2.386,6.554 3.596,12.682 3.596,18.21 0,6.101 -1.41,10.767 -4.192,13.866 C 7.651,-1.482 4.253,0 0,0 m -7.635,-59.86 c -5.6,0 -10.502,2.334 -14.568,6.938 -3.971,4.495 -5.985,10.769 -5.985,18.649 0,5.203 1.128,11.303 3.355,18.132 2.297,7.048 5.64,12.51 9.937,16.233 4.434,3.844 9.446,5.794 14.896,5.794 5.936,0 10.904,-2.182 14.768,-6.485 3.782,-4.215 5.699,-10.203 5.699,-17.798 0,-6.217 -1.329,-13.021 -3.951,-20.224 -2.697,-7.406 -6.214,-12.84 -10.456,-16.148 -4.326,-3.378 -8.934,-5.091 -13.695,-5.091 m -55.544,-45.905 18.885,0 10.974,52.577 3.883,-6.147 c 5.722,-9.059 13.96,-13.463 25.186,-13.463 11.078,0 20.432,4.472 28.595,13.671 9.581,10.841 14.441,24.341 14.441,40.122 0,12.385 -2.715,21.741 -8.069,27.809 -5.334,6.043 -12.232,8.98 -21.087,8.98 -4.625,0 -9.008,-0.832 -13.03,-2.47 -4.096,-1.671 -8.596,-4.524 -13.375,-8.478 l -6.496,-5.375 2.986,14.155 -17.574,0 -25.319,-121.381 z m 23.669,-5.886 -30.91,0 27.774,133.152 29.618,0 -1.133,-5.367 c 2.953,1.967 5.809,3.515 8.538,4.629 4.731,1.93 9.862,2.907 15.252,2.907 10.494,0 19.073,-3.692 25.5,-10.972 6.332,-7.176 9.542,-17.842 9.542,-31.703 0,-17.26 -5.356,-32.071 -15.92,-44.023 -9.22,-10.391 -20.322,-15.656 -33.002,-15.656 -10.811,0 -19.567,3.646 -26.113,10.852 l -9.146,-43.819 z"
             style="fill:#ffffff;fill-opacity:1;fill-rule:nonzero;stroke:none"
             id="path60" /></g><g
           id="g62"
           transform="translate(432.4571,454.709)"><path
             d="m 0,0 23.25,0 -3.73,-17.872 c 8.675,13.361 18.072,20.04 28.194,20.04 3.586,0 7.431,-0.896 11.539,-2.688 L 49.71,-20.908 c -2.256,0.811 -4.657,1.216 -7.201,1.216 -4.281,0 -8.632,-1.621 -13.056,-4.859 -4.425,-3.24 -7.881,-7.562 -10.367,-12.97 -2.488,-5.408 -4.945,-13.981 -7.374,-25.721 l -6.073,-28.889 -24.898,0 L 0,0 z"
             style="fill:#ffffff;fill-opacity:1;fill-rule:nonzero;stroke:none"
             id="path64" /></g><g
           id="g66"
           transform="translate(416.82,365.5208)"><path
             d="m 0,0 18.887,0 5.582,26.551 c 2.496,12.063 4.976,20.684 7.58,26.347 2.685,5.839 6.488,10.587 11.302,14.113 4.922,3.602 9.899,5.428 14.795,5.428 1.928,0 3.804,-0.21 5.604,-0.628 l 7.139,15.253 c -2.666,0.897 -5.192,1.35 -7.537,1.35 -9.015,0 -17.671,-6.291 -25.727,-18.7 l -8.562,-13.187 6.204,29.718 -17.239,0 L 0,0 z m 23.665,-5.886 -30.909,0 20.49,98.017 29.262,0 -1.878,-8.995 c 7.076,7.417 14.685,11.163 22.722,11.163 3.973,0 8.251,-0.987 12.714,-2.934 l 2.77,-1.208 -11.96,-25.552 -2.524,0.906 c -1.926,0.691 -4.014,1.042 -6.206,1.042 -3.62,0 -7.428,-1.444 -11.318,-4.291 C 42.832,59.337 39.658,55.358 37.397,50.439 35.015,45.259 32.604,36.818 30.231,25.35 L 23.665,-5.886 z"
             style="fill:#ffffff;fill-opacity:1;fill-rule:nonzero;stroke:none"
             id="path68" /></g><g
           id="g70"
           transform="translate(552.4359,416.1049)"><path
             d="m 0,0 c 0.057,1.098 0.087,1.937 0.087,2.515 0,6.824 -1.533,11.942 -4.598,15.355 -3.066,3.413 -7.172,5.119 -12.319,5.119 -5.148,0 -9.76,-1.939 -13.837,-5.813 -4.077,-3.875 -6.84,-9.6 -8.285,-17.176 L 0,0 z m 20.994,-15.183 -62.461,0 c -0.058,-0.983 -0.087,-1.734 -0.087,-2.255 0,-6.131 1.749,-11.076 5.248,-14.835 3.499,-3.76 7.765,-5.638 12.797,-5.638 8.269,0 14.718,4.279 19.345,12.839 l 22.296,-3.731 C 13.794,-37.768 7.995,-44.491 0.738,-48.972 c -7.259,-4.483 -15.399,-6.723 -24.421,-6.723 -12.378,0 -22.441,3.917 -30.19,11.754 -7.751,7.836 -11.625,18.204 -11.625,31.1 0,12.608 3.499,23.828 10.497,33.661 9.543,13.302 23.163,19.952 40.861,19.952 11.278,0 20.241,-3.484 26.893,-10.452 6.65,-6.971 9.976,-16.731 9.976,-29.28 0,-6.015 -0.578,-11.422 -1.735,-16.223"
             style="fill:#ffffff;fill-opacity:1;fill-rule:nonzero;stroke:none"
             id="path72" /></g><g
           id="g74"
           transform="translate(517.1799,419.0478)"><path
             d="m 0,0 32.398,0 c -0.06,5.828 -1.352,10.188 -3.843,12.961 -2.503,2.787 -5.817,4.142 -10.129,4.142 -4.403,0 -8.267,-1.637 -11.81,-5.004 C 3.646,9.276 1.427,5.216 0,0 m 38.049,-5.886 -45.302,0 0.667,3.495 c 1.555,8.155 4.632,14.466 9.147,18.757 4.625,4.395 9.963,6.623 15.865,6.623 5.994,0 10.874,-2.051 14.509,-6.095 3.55,-3.956 5.351,-9.782 5.351,-17.322 0,-0.614 -0.03,-1.503 -0.091,-2.669 L 38.049,-5.886 z M 21.116,34.887 c -16.847,0 -29.431,-6.125 -38.469,-18.725 -6.598,-9.269 -9.946,-20.02 -9.946,-31.946 0,-12.036 3.625,-21.803 10.774,-29.031 7.24,-7.321 16.431,-10.88 28.098,-10.88 8.427,0 16.122,2.113 22.875,6.283 5.768,3.563 10.613,8.744 14.441,15.435 l -16.266,2.722 c -5.091,-8.325 -12.106,-12.542 -20.876,-12.542 -5.861,0 -10.891,2.213 -14.951,6.577 -4.006,4.302 -6.037,9.968 -6.037,16.84 0,0.56 0.029,1.369 0.092,2.428 l 0.164,2.769 62.863,0 c 0.773,3.998 1.164,8.454 1.164,13.28 0,11.709 -3.083,20.875 -9.163,27.248 -6.128,6.421 -14.228,9.542 -24.763,9.542 m -9.543,-96.468 c -13.136,0 -23.997,4.249 -32.283,12.628 -8.277,8.369 -12.475,19.528 -12.475,33.169 0,13.174 3.716,25.073 11.043,35.368 10.087,14.063 24.639,21.188 43.258,21.188 12.059,0 21.823,-3.823 29.022,-11.363 7.16,-7.505 10.79,-18.04 10.79,-31.312 0,-6.219 -0.611,-11.908 -1.817,-16.913 l -0.543,-2.253 -61.915,0 c 0.12,-5.079 1.579,-9.057 4.451,-12.141 2.943,-3.164 6.424,-4.701 10.643,-4.701 7.166,0 12.647,3.694 16.757,11.295 l 1,1.85 28.243,-4.725 -1.71,-3.536 C 51.472,-42.462 45.249,-49.66 37.54,-54.419 29.845,-59.171 21.108,-61.581 11.573,-61.581"
             style="fill:#ffffff;fill-opacity:1;fill-rule:nonzero;stroke:none"
             id="path76" /></g><g
           id="g78"
           transform="translate(579.3294,388.3441)"><path
             d="m 0,0 24.117,3.817 c 2.139,-5.09 4.8,-8.691 7.982,-10.801 3.18,-2.112 7.517,-3.167 13.012,-3.167 5.668,0 10.208,1.272 13.621,3.817 2.371,1.736 3.557,3.847 3.557,6.334 0,1.676 -0.607,3.18 -1.822,4.511 -1.273,1.271 -4.715,2.832 -10.323,4.684 -15.039,4.973 -24.35,8.906 -27.935,11.799 -5.611,4.511 -8.415,10.409 -8.415,17.696 0,7.289 2.717,13.562 8.155,18.826 7.576,7.344 18.825,11.017 33.746,11.017 11.856,0 20.821,-2.168 26.894,-6.505 6.072,-4.338 9.918,-10.21 11.538,-17.611 L 71.138,40.426 c -1.215,3.354 -3.182,5.869 -5.9,7.547 -3.701,2.256 -8.155,3.384 -13.36,3.384 -5.205,0 -8.95,-0.868 -11.234,-2.602 -2.286,-1.736 -3.427,-3.731 -3.427,-5.987 0,-2.313 1.156,-4.221 3.47,-5.726 1.446,-0.925 6.101,-2.545 13.967,-4.857 12.145,-3.529 20.271,-6.999 24.378,-10.411 5.783,-4.801 8.675,-10.584 8.675,-17.351 0,-8.732 -3.673,-16.308 -11.018,-22.729 -7.345,-6.42 -17.697,-9.629 -31.057,-9.629 -13.302,0 -23.583,2.443 -30.841,7.33 C 7.533,-15.718 2.603,-8.849 0,0"
             style="fill:#ffffff;fill-opacity:1;fill-rule:nonzero;stroke:none"
             id="path80" /></g><g
           id="g82"
           transform="translate(583.2322,385.9818)"><path
             d="m 0,0 c 2.575,-6.682 6.697,-11.872 12.533,-15.801 6.727,-4.531 16.551,-6.828 29.196,-6.828 12.566,0 22.363,2.994 29.121,8.902 6.737,5.888 10.012,12.599 10.012,20.512 0,5.901 -2.491,10.835 -7.613,15.087 -3.776,3.137 -11.621,6.451 -23.319,9.849 -10.822,3.181 -13.558,4.453 -14.732,5.205 -3.992,2.596 -4.826,5.893 -4.826,8.205 0,2.21 0.796,5.449 4.589,8.33 2.837,2.154 7.094,3.201 13.014,3.201 5.729,0 10.739,-1.283 14.892,-3.813 2.633,-1.627 4.691,-3.894 6.146,-6.766 l 17.526,3.043 c -1.749,5.306 -4.897,9.537 -9.564,12.87 -5.534,3.952 -14.007,5.957 -25.182,5.957 -14.061,0 -24.726,-3.427 -31.698,-10.187 -4.886,-4.73 -7.261,-10.197 -7.261,-16.713 0,-6.406 2.394,-11.446 7.316,-15.403 2.268,-1.829 8.792,-5.272 27.015,-11.299 8.048,-2.657 10.362,-4.279 11.48,-5.396 1.812,-1.981 2.684,-4.167 2.684,-6.593 0,-2.382 -0.826,-5.827 -4.761,-8.708 -3.895,-2.905 -9.07,-4.385 -15.359,-4.385 -6.061,0 -10.987,1.231 -14.641,3.658 -3.181,2.11 -5.902,5.465 -8.109,9.994 L 0,0 z m 41.729,-28.515 c -13.837,0 -24.767,2.635 -32.484,7.831 -7.807,5.257 -13.181,12.732 -15.971,22.216 l -0.945,3.213 29.705,4.702 0.894,-2.129 c 1.9,-4.522 4.22,-7.713 6.895,-9.486 2.674,-1.778 6.504,-2.677 11.386,-2.677 4.993,0 8.984,1.087 11.86,3.233 2.131,1.559 2.374,3.014 2.374,3.974 0,0.937 -0.334,1.741 -1.052,2.527 -0.238,0.234 -1.878,1.498 -9.073,3.874 -15.52,5.132 -24.961,9.157 -28.86,12.303 -6.309,5.072 -9.51,11.797 -9.51,19.987 0,8.081 3.045,15.127 9.051,20.939 8.108,7.86 20.151,11.847 35.794,11.847 12.426,0 22.05,-2.373 28.603,-7.053 6.655,-4.755 10.93,-11.275 12.703,-19.378 l 0.657,-3.003 -28.448,-4.937 -0.84,2.318 c -0.991,2.736 -2.522,4.713 -4.679,6.045 -3.201,1.951 -7.181,2.946 -11.814,2.946 -5.633,0 -8.251,-1.09 -9.454,-2.004 -2.029,-1.54 -2.263,-2.816 -2.263,-3.642 0,-0.872 0.242,-2.031 2.131,-3.259 0.528,-0.338 2.909,-1.479 13.192,-4.501 12.646,-3.674 20.966,-7.264 25.428,-10.971 6.462,-5.364 9.738,-11.963 9.738,-19.615 0,-9.577 -4.045,-17.969 -12.023,-24.944 -7.862,-6.872 -18.963,-10.356 -32.995,-10.356"
             style="fill:#ffffff;fill-opacity:1;fill-rule:nonzero;stroke:none"
             id="path84" /></g><g
           id="g86"
           transform="translate(678.1402,388.3441)"><path
             d="m 0,0 24.117,3.817 c 2.139,-5.09 4.8,-8.691 7.982,-10.801 3.18,-2.112 7.518,-3.167 13.013,-3.167 5.667,0 10.205,1.272 13.62,3.817 2.371,1.736 3.558,3.847 3.558,6.334 0,1.676 -0.61,3.18 -1.822,4.511 -1.274,1.271 -4.717,2.832 -10.324,4.684 -15.039,4.973 -24.35,8.906 -27.935,11.799 -5.611,4.511 -8.415,10.409 -8.415,17.696 0,7.289 2.717,13.562 8.155,18.826 7.576,7.344 18.826,11.017 33.748,11.017 11.855,0 20.819,-2.168 26.891,-6.505 6.073,-4.338 9.918,-10.21 11.539,-17.611 L 71.138,40.426 c -1.215,3.354 -3.181,5.869 -5.9,7.547 -3.701,2.256 -8.153,3.384 -13.361,3.384 -5.204,0 -8.949,-0.868 -11.234,-2.602 -2.285,-1.736 -3.426,-3.731 -3.426,-5.987 0,-2.313 1.156,-4.221 3.469,-5.726 1.446,-0.925 6.102,-2.545 13.968,-4.857 12.145,-3.529 20.269,-6.999 24.379,-10.411 5.782,-4.801 8.674,-10.584 8.674,-17.351 0,-8.732 -3.673,-16.308 -11.016,-22.729 -7.346,-6.42 -17.698,-9.629 -31.059,-9.629 -13.302,0 -23.583,2.443 -30.841,7.33 C 7.533,-15.718 2.603,-8.849 0,0"
             style="fill:#ffffff;fill-opacity:1;fill-rule:nonzero;stroke:none"
             id="path88" /></g><g
           id="g90"
           transform="translate(682.043,385.9818)"><path
             d="m 0,0 c 2.575,-6.682 6.697,-11.872 12.532,-15.801 6.728,-4.531 16.552,-6.828 29.197,-6.828 12.565,0 22.364,2.994 29.122,8.902 6.735,5.888 10.01,12.599 10.01,20.512 0,5.901 -2.489,10.835 -7.61,15.087 -3.779,3.137 -11.625,6.451 -23.321,9.849 -10.823,3.181 -13.558,4.453 -14.733,5.205 -3.991,2.595 -4.825,5.893 -4.825,8.205 0,2.21 0.796,5.449 4.588,8.33 2.838,2.154 7.096,3.201 13.015,3.201 5.729,0 10.739,-1.283 14.892,-3.813 2.633,-1.625 4.69,-3.893 6.146,-6.766 l 17.525,3.043 c -1.748,5.306 -4.897,9.537 -9.563,12.87 -5.535,3.952 -14.007,5.957 -25.181,5.957 -14.062,0 -24.727,-3.427 -31.7,-10.187 -4.885,-4.73 -7.26,-10.197 -7.26,-16.713 0,-6.406 2.393,-11.446 7.316,-15.403 2.268,-1.829 8.792,-5.272 27.016,-11.299 8.047,-2.657 10.361,-4.279 11.478,-5.396 1.815,-1.986 2.686,-4.17 2.686,-6.593 0,-2.382 -0.827,-5.827 -4.762,-8.708 -3.897,-2.905 -9.072,-4.385 -15.359,-4.385 -6.061,0 -10.987,1.231 -14.641,3.658 -3.181,2.11 -5.902,5.465 -8.109,9.994 L 0,0 z m 41.729,-28.515 c -13.838,0 -24.767,2.635 -32.484,7.831 -7.807,5.257 -13.181,12.732 -15.971,22.216 l -0.945,3.213 29.705,4.702 0.893,-2.129 c 1.901,-4.522 4.221,-7.713 6.896,-9.486 2.674,-1.778 6.505,-2.677 11.386,-2.677 4.992,0 8.983,1.087 11.861,3.233 2.13,1.559 2.374,3.014 2.374,3.974 0,0.936 -0.335,1.739 -1.055,2.528 -0.235,0.231 -1.875,1.496 -9.07,3.873 -15.521,5.132 -24.962,9.157 -28.861,12.303 -6.309,5.072 -9.51,11.797 -9.51,19.987 0,8.081 3.045,15.127 9.051,20.939 8.108,7.86 20.151,11.847 35.795,11.847 12.425,0 22.049,-2.373 28.601,-7.053 C 87.05,62.031 91.325,55.511 93.1,47.408 l 0.656,-3.003 -28.447,-4.937 -0.84,2.318 c -0.992,2.737 -2.523,4.714 -4.68,6.045 -3.201,1.951 -7.182,2.946 -11.814,2.946 -5.633,0 -8.252,-1.09 -9.456,-2.004 -2.027,-1.54 -2.261,-2.816 -2.261,-3.642 0,-0.872 0.242,-2.032 2.131,-3.259 0.527,-0.338 2.908,-1.479 13.192,-4.501 12.643,-3.674 20.963,-7.262 25.429,-10.97 6.46,-5.364 9.737,-11.964 9.737,-19.616 0,-9.577 -4.045,-17.969 -12.022,-24.944 -7.863,-6.872 -18.964,-10.356 -32.996,-10.356"
             style="fill:#ffffff;fill-opacity:1;fill-rule:nonzero;stroke:none"
             id="path92" /></g><g
           id="g94"
           transform="translate(119.3659,250.4788)"><path
             d="m 0,0 12.999,0 c 5.865,0 11.076,0.542 15.634,1.625 2.839,0.673 5.267,1.661 7.284,2.97 2.652,1.68 5.062,3.903 7.229,6.668 2.838,3.66 5.107,7.834 6.807,12.523 1.7,4.687 2.55,10.02 2.55,15.998 0,6.649 -1.158,11.757 -3.474,15.325 -2.317,3.567 -5.267,5.929 -8.854,7.087 -2.652,0.86 -6.779,1.289 -12.383,1.289 l -14.512,0 L 0,0 z m -12.943,-9.301 17.145,82.144 24.767,0 c 5.94,0 10.479,-0.43 13.616,-1.289 4.483,-1.158 8.312,-3.222 11.487,-6.192 3.175,-2.969 5.566,-6.678 7.172,-11.122 1.606,-4.446 2.409,-9.433 2.409,-14.961 0,-6.612 -0.999,-12.635 -2.997,-18.071 C 58.657,15.774 56.042,10.991 52.811,6.864 49.58,2.736 46.199,-0.496 42.669,-2.829 39.139,-5.164 34.965,-6.892 30.146,-8.013 26.485,-8.872 21.983,-9.301 16.642,-9.301 l -29.585,0 z"
             style="fill:#ffffff;fill-opacity:1;fill-rule:nonzero;stroke:none"
             id="path96" /></g><g
           id="g98"
           transform="translate(189.3512,241.1773)"><path
             d="m 0,0 17.202,82.144 59.283,0 -1.961,-9.357 -48.301,0 -5.379,-25.551 47.068,0 -1.961,-9.358 -47.068,0 -5.94,-28.577 51.719,0 L 62.701,0 0,0 z"
             style="fill:#ffffff;fill-opacity:1;fill-rule:nonzero;stroke:none"
             id="path100" /></g><g
           id="g102"
           transform="translate(265.3322,241.1773)"><path
             d="m 0,0 17.146,82.144 10.983,0 -15.186,-72.843 42.642,0 L 53.623,0 0,0 z"
             style="fill:#ffffff;fill-opacity:1;fill-rule:nonzero;stroke:none"
             id="path104" /></g><g
           id="g106"
           transform="translate(359.9715,241.1773)"><path
             d="m 0,0 17.202,82.144 10.646,0 13.841,-30.818 c 4.22,-9.414 7.564,-17.333 10.03,-23.758 1.419,-3.736 3.062,-8.778 4.931,-15.128 1.008,6.91 2.277,14.045 3.81,21.403 l 10.086,48.301 10.701,0 L 64.102,0 53.231,0 32.835,47.46 c -3.624,8.368 -6.444,15.745 -8.46,22.134 -0.561,-5.343 -1.645,-11.9 -3.251,-19.668 L 10.702,0 0,0 z"
             style="fill:#ffffff;fill-opacity:1;fill-rule:nonzero;stroke:none"
             id="path108" /></g><g
           id="g110"
           transform="translate(458.5337,275.0207)"><path
             d="m 0,0 c 0,-4.818 0.999,-9.245 2.998,-13.279 1.998,-4.035 4.977,-7.192 8.937,-9.47 3.959,-2.279 8.125,-3.418 12.496,-3.418 4.221,0 8.236,0.999 12.047,2.997 3.81,1.999 7.219,4.783 10.226,8.349 3.006,3.568 5.379,7.958 7.116,13.168 1.737,5.211 2.605,10.338 2.605,15.382 0,8.18 -2.288,14.698 -6.863,19.555 -4.577,4.856 -10.226,7.284 -16.951,7.284 -8.592,0 -16.175,-3.67 -22.749,-11.01 C 3.287,22.217 0,12.365 0,0 m -10.814,0.56 c 0,14.645 4.231,26.495 12.691,35.554 8.461,9.058 18.724,13.588 30.79,13.588 10.235,0 18.575,-3.334 25.019,-10.002 6.444,-6.668 9.666,-15.605 9.666,-26.812 0,-7.994 -1.625,-15.408 -4.875,-22.246 -2.428,-5.117 -5.491,-9.534 -9.189,-13.251 -3.698,-3.718 -7.659,-6.584 -11.88,-8.6 -5.602,-2.69 -11.542,-4.035 -17.818,-4.035 -6.575,0 -12.561,1.569 -17.959,4.707 -5.397,3.137 -9.489,7.517 -12.27,13.14 -2.784,5.621 -4.175,11.607 -4.175,17.957"
             style="fill:#ffffff;fill-opacity:1;fill-rule:nonzero;stroke:none"
             id="path112" /></g><g
           id="g114"
           transform="translate(552.3324,286.5638)"><path
             d="m 0,0 15.185,0 c 7.023,0 11.599,0.093 13.728,0.28 4.147,0.411 7.546,1.345 10.198,2.802 2.652,1.457 4.707,3.417 6.164,5.883 1.457,2.466 2.185,5.117 2.185,7.957 0,2.391 -0.542,4.473 -1.624,6.248 -1.085,1.774 -2.504,2.978 -4.26,3.614 -1.756,0.635 -4.744,0.952 -8.965,0.952 l -26.783,0 L 0,0 z m -20.452,-45.387 17.202,82.145 34.461,0 c 6.798,0 11.953,-0.569 15.465,-1.709 3.511,-1.139 6.266,-3.278 8.265,-6.416 1.997,-3.138 2.997,-7.097 2.997,-11.879 0,-6.687 -2.185,-12.235 -6.556,-16.642 -4.37,-4.409 -11.43,-7.265 -21.18,-8.573 2.988,-2.204 5.248,-4.371 6.78,-6.499 3.436,-4.82 6.2,-9.806 8.293,-14.962 l 6.275,-15.465 -12.271,0 -5.883,15.297 c -2.129,5.528 -4.558,10.31 -7.284,14.345 -1.869,2.802 -3.774,4.642 -5.716,5.52 -1.943,0.876 -5.099,1.316 -9.469,1.316 l -12.776,0 -7.621,-36.478 -10.982,0 z"
             style="fill:#ffffff;fill-opacity:1;fill-rule:nonzero;stroke:none"
             id="path116" /></g><g
           id="g118"
           transform="translate(633.3564,241.1773)"><path
             d="m 0,0 15.185,72.787 -26.952,0 1.961,9.357 64.663,0 -1.962,-9.357 -26.727,0 L 10.983,0 0,0 z"
             style="fill:#ffffff;fill-opacity:1;fill-rule:nonzero;stroke:none"
             id="path120" /></g><g
           id="g122"
           transform="translate(682.5538,241.1773)"><path
             d="m 0,0 17.202,82.144 59.283,0 -1.962,-9.357 -48.3,0 -5.379,-25.551 47.068,0 -1.962,-9.358 -47.067,0 -5.94,-28.577 51.718,0 L 62.701,0 0,0 z"
             style="fill:#ffffff;fill-opacity:1;fill-rule:nonzero;stroke:none"
             id="path124" /></g><g
           id="g126"
           transform="translate(632.7727,549.5328)"><path
             d="M 0,0 C 0,0 275.123,-77.341 237.44,-246.02 199.756,-414.699 4.161,-396.754 -361.908,-377.015 c 0,0 605.329,-132.79 653.181,125.612 0,0 48.143,195.573 -274.551,314.029 L 0,0 z"
             style="fill:#ffffff;fill-opacity:1;fill-rule:nonzero;stroke:none"
             id="path128" /></g><g
           id="g130"
           transform="translate(655.4879,627.9026)"><path
             d="m 0,0 6.376,28.4 c 0,0 175.594,-103.935 218.266,-179.469 C 224.642,-151.069 73.082,-10.3 0,0"
             style="fill:#ffffff;fill-opacity:1;fill-rule:nonzero;stroke:none"
             id="path132" /></g><g
           id="g134"
           transform="translate(663.8261,664.1985)"><path
             d="M 0,0 0,9.81 C 0,9.81 122.131,-58.368 149.107,-93.682 149.107,-93.682 22.072,-1.471 0,0"
             style="fill:#ffffff;fill-opacity:1;fill-rule:nonzero;stroke:none"
             id="path136" /></g></g></g></g></svg>