<?xml version="1.0" encoding="UTF-8" standalone="no"?>
<!-- Created with Inkscape (http://www.inkscape.org/) -->

<svg
   xmlns:dc="http://purl.org/dc/elements/1.1/"
   xmlns:cc="http://creativecommons.org/ns#"
   xmlns:rdf="http://www.w3.org/1999/02/22-rdf-syntax-ns#"
   xmlns:svg="http://www.w3.org/2000/svg"
   xmlns="http://www.w3.org/2000/svg"
   xmlns:sodipodi="http://sodipodi.sourceforge.net/DTD/sodipodi-0.dtd"
   xmlns:inkscape="http://www.inkscape.org/namespaces/inkscape"
   id="svg2"
   version="1.1"
   inkscape:version="0.48.4 r9939"
   width="1209.7375"
   height="1120.1175"
   xml:space="preserve"
   sodipodi:docname="Vistas_ExpressDelNorte_cc.pdf"
   inkscape:export-filename="/home/andgok/Proyectos/ExpressDelNorte/static/img/logo_express.png"
   inkscape:export-xdpi="90"
   inkscape:export-ydpi="90"><metadata
     id="metadata8"><rdf:RDF><cc:Work
         rdf:about=""><dc:format>image/svg+xml</dc:format><dc:type
           rdf:resource="http://purl.org/dc/dcmitype/StillImage" /><dc:title></dc:title></cc:Work></rdf:RDF></metadata><defs
     id="defs6"><clipPath
       clipPathUnits="userSpaceOnUse"
       id="clipPath32"><path
         d="m 0,896.094 967.79,0 L 967.79,0 0,0 0,896.094 z"
         id="path34" /></clipPath></defs><sodipodi:namedview
     pagecolor="#ffffff"
     bordercolor="#666666"
     borderopacity="1"
     objecttolerance="10"
     gridtolerance="10"
     guidetolerance="10"
     inkscape:pageopacity="0"
     inkscape:pageshadow="2"
     inkscape:window-width="1360"
     inkscape:window-height="713"
     id="namedview4"
     showgrid="false"
     inkscape:zoom="0.21069217"
     inkscape:cx="604.86877"
     inkscape:cy="560.05878"
     inkscape:window-x="0"
     inkscape:window-y="30"
     inkscape:window-maximized="1"
     inkscape:current-layer="g10" /><g
     id="g10"
     inkscape:groupmode="layer"
     inkscape:label="Vistas_ExpressDelNorte_cc"
     transform="matrix(1.25,0,0,-1.25,0,1120.1175)"><g
       id="g12"
       transform="translate(622.607,729.8827)"><path
         d="M 0,0 -25.875,-133.069 -425.082,72.079 0,0 z"
         style="fill:#8cc63e;fill-opacity:1;fill-rule:nonzero;stroke:none"
         id="path14" /></g><g
       id="g16"
       transform="translate(622.607,729.8827)"><path
         d="M 0,0 114.587,81.32 -425.082,72.079 0,0 z"
         style="fill:#bfd630;fill-opacity:1;fill-rule:nonzero;stroke:none"
         id="path18" /></g><g
       id="g20"
       transform="translate(596.7324,596.8135)"><path
         d="m 0,0 -40.66,101.65 -97.954,-12.937 -18.482,-37.888 44.123,9.377 L 0,0 z"
         style="fill:#008e3a;fill-opacity:1;fill-rule:nonzero;stroke:none"
         id="path22" /></g><g
       id="g24"
       transform="translate(197.5248,801.9618)"><path
         d="M 0,0 206.997,-190.363 358.548,-103.498 0,0 z"
         style="fill:#bfd630;fill-opacity:1;fill-rule:nonzero;stroke:none"
         id="path26" /></g><g
       id="g28"><g
         id="g30"
         clip-path="url(#clipPath32)"><g
           id="g36"
           transform="translate(153.3364,459.3905)"><path
             d="m 0,0 c 0.059,1.131 0.09,1.995 0.09,2.59 0,7.028 -1.58,12.3 -4.736,15.815 -3.158,3.515 -7.386,5.272 -12.688,5.272 -5.302,0 -10.052,-1.997 -14.251,-5.987 C -35.785,13.699 -38.63,7.803 -40.118,0 L 0,0 z m 21.623,-15.638 -64.332,0 c -0.06,-1.012 -0.089,-1.786 -0.089,-2.322 0,-6.315 1.801,-11.407 5.405,-15.279 3.603,-3.873 7.997,-5.808 13.18,-5.808 8.517,0 15.158,4.408 19.925,13.224 l 22.963,-3.842 C 14.207,-38.899 8.235,-45.823 0.76,-50.438 c -7.476,-4.618 -15.86,-6.925 -25.152,-6.925 -12.748,0 -23.113,4.035 -31.094,12.106 -7.983,8.071 -11.973,18.749 -11.973,32.032 0,12.985 3.603,24.541 10.812,34.669 9.827,13.7 23.856,20.549 42.083,20.549 11.616,0 20.848,-3.589 27.699,-10.765 6.849,-7.18 10.275,-17.232 10.275,-30.156 0,-6.196 -0.596,-11.765 -1.787,-16.71"
             style="fill:#0b9444;fill-opacity:1;fill-rule:nonzero;stroke:none"
             id="path38"
             inkscape:connector-curvature="0" /></g><g
           id="g40"
           transform="translate(117.0248,462.4215)"><path
             d="m 0,0 33.368,0 c -0.062,6.003 -1.393,10.493 -3.958,13.35 -2.579,2.869 -5.991,4.265 -10.432,4.265 -4.536,0 -8.514,-1.686 -12.164,-5.153 C 3.755,9.553 1.47,5.372 0,0 m 39.188,-6.062 -46.658,0 0.686,3.599 c 1.602,8.399 4.772,14.899 9.422,19.319 4.763,4.527 10.261,6.821 16.34,6.821 6.173,0 11.2,-2.112 14.943,-6.277 3.657,-4.074 5.511,-10.076 5.511,-17.841 0,-0.632 -0.031,-1.548 -0.094,-2.748 l -0.15,-2.873 z m -17.44,41.993 c -17.352,0 -30.312,-6.307 -39.621,-19.286 -6.795,-9.545 -10.243,-20.619 -10.243,-32.901 0,-12.397 3.733,-22.456 11.096,-29.9 7.457,-7.541 16.923,-11.207 28.939,-11.207 8.679,0 16.606,2.177 23.56,6.472 5.941,3.669 10.931,9.006 14.874,15.897 L 33.6,-32.191 c -5.244,-8.574 -12.469,-12.918 -21.502,-12.918 -6.036,0 -11.217,2.28 -15.398,6.774 -4.126,4.431 -6.218,10.267 -6.218,17.344 0,0.577 0.031,1.411 0.095,2.501 l 0.169,2.852 64.745,0 c 0.796,4.118 1.199,8.707 1.199,13.678 0,12.059 -3.175,21.5 -9.437,28.064 -6.312,6.613 -14.655,9.827 -25.505,9.827 m -9.829,-99.356 c -13.528,0 -24.715,4.376 -33.249,13.006 -8.525,8.62 -12.848,20.113 -12.848,34.163 0,13.568 3.826,25.823 11.373,36.427 10.389,14.483 25.377,21.822 44.553,21.822 12.421,0 22.477,-3.938 29.891,-11.704 7.374,-7.729 11.113,-18.579 11.113,-32.249 0,-6.405 -0.629,-12.264 -1.871,-17.419 l -0.56,-2.321 -63.769,0 c 0.124,-5.231 1.627,-9.328 4.585,-12.504 3.031,-3.259 6.617,-4.843 10.961,-4.843 7.381,0 13.026,3.805 17.259,11.635 l 1.03,1.904 29.089,-4.866 -1.762,-3.642 c -4.701,-9.718 -11.111,-17.131 -19.05,-22.033 -7.925,-4.894 -16.924,-7.376 -26.745,-7.376"
             style="fill:#0b9444;fill-opacity:1;fill-rule:nonzero;stroke:none"
             id="path42"
             inkscape:connector-curvature="0" /></g><g
           id="g44"
           transform="translate(228.0337,430.8874)"><path
             d="m 0,0 -23.589,-26.627 -31.45,0 43.87,48.606 -24.124,46.284 27.251,0 13.849,-27.073 24.036,27.073 31.183,0 -44.05,-49.232 23.946,-45.658 -27.251,0 L 0,0 z"
             style="fill:#0b9444;fill-opacity:1;fill-rule:nonzero;stroke:none"
             id="path46"
             inkscape:connector-curvature="0" /></g><g
           id="g48"
           transform="translate(243.5551,407.2919)"><path
             d="m 0,0 20.389,0 -22.595,43.081 40.931,45.747 -23.042,0 -26.075,-29.372 -15.025,29.372 -20.4,0 L -23.029,45.107 -63.742,0 -40.474,0 -14.85,28.923 0,0 z m 30.413,-6.062 -34.114,0 -12.492,24.33 -21.553,-24.33 -39.634,0 47.028,52.104 -25.461,48.848 34.105,0 12.673,-24.775 21.994,24.775 39.325,0 L 5.116,42.172 30.413,-6.062 z"
             style="fill:#0b9444;fill-opacity:1;fill-rule:nonzero;stroke:none"
             id="path50"
             inkscape:connector-curvature="0" /></g><g
           id="g52"
           transform="translate(320.5997,444.7371)"><path
             d="m 0,0 c 0,-7.388 1.801,-13.122 5.406,-17.2 3.603,-4.081 7.847,-6.122 12.732,-6.122 4.229,0 8.31,1.534 12.241,4.603 3.932,3.067 7.193,8.159 9.784,15.278 2.591,7.117 3.887,13.715 3.887,19.792 0,7.088 -1.698,12.522 -5.093,16.306 -3.396,3.782 -7.715,5.673 -12.956,5.673 -4.885,0 -9.337,-1.742 -13.357,-5.227 C 8.622,29.619 5.509,24.495 3.306,17.735 1.102,10.974 0,5.062 0,0 m -15.457,54.413 24.303,0 -2.055,-9.738 c 5.182,4.288 10.037,7.356 14.564,9.203 4.526,1.845 9.381,2.769 14.564,2.769 9.947,0 17.944,-3.425 23.99,-10.274 6.045,-6.851 9.07,-17.066 9.07,-30.648 0,-17.097 -5.214,-31.54 -15.637,-43.334 -8.935,-10.069 -19.509,-15.101 -31.719,-15.101 -12.569,0 -22.069,5.093 -28.503,15.278 l -10.275,-49.232 -25.643,0 27.341,131.077 z"
             style="fill:#0b9444;fill-opacity:1;fill-rule:nonzero;stroke:none"
             id="path54"
             inkscape:connector-curvature="0" /></g><g
           id="g56"
           transform="translate(346.601,480.0364)"><path
             d="m 0,0 c -4.17,0 -7.89,-1.468 -11.372,-4.486 -3.582,-3.103 -6.421,-7.819 -8.441,-14.018 -2.095,-6.425 -3.157,-12.076 -3.157,-16.795 0,-6.594 1.563,-11.705 4.646,-15.194 3.029,-3.43 6.451,-5.097 10.461,-5.097 3.568,0 6.962,1.295 10.375,3.961 3.459,2.698 6.42,7.383 8.802,13.926 2.457,6.75 3.703,13.061 3.703,18.755 0,6.284 -1.452,11.089 -4.317,14.282 C 7.88,-1.526 4.38,0 0,0 m -7.863,-61.652 c -5.768,0 -10.817,2.404 -15.004,7.145 -4.091,4.63 -6.165,11.091 -6.165,19.208 0,5.359 1.162,11.641 3.456,18.674 2.365,7.26 5.809,12.885 10.234,16.72 4.567,3.959 9.729,5.967 15.342,5.967 6.114,0 11.231,-2.247 15.211,-6.679 3.894,-4.341 5.868,-10.508 5.868,-18.331 0,-6.403 -1.368,-13.41 -4.069,-20.83 -2.777,-7.628 -6.4,-13.223 -10.768,-16.63 -4.456,-3.48 -9.202,-5.244 -14.105,-5.244 m -57.208,-47.28 19.451,0 11.302,54.152 4,-6.332 c 5.893,-9.33 14.378,-13.866 25.939,-13.866 11.41,0 21.044,4.606 29.452,14.081 9.868,11.165 14.873,25.069 14.873,41.323 0,12.756 -2.796,22.392 -8.31,28.642 -5.494,6.223 -12.598,9.248 -21.719,9.248 -4.763,0 -9.278,-0.857 -13.419,-2.544 -4.219,-1.721 -8.854,-4.659 -13.776,-8.732 l -6.691,-5.535 3.076,14.578 -18.101,0 -26.077,-125.015 z m 24.378,-6.062 -31.835,0 28.606,137.139 30.504,0 -1.167,-5.528 c 3.042,2.026 5.983,3.62 8.794,4.767 4.872,1.988 10.157,2.994 15.708,2.994 10.809,0 19.644,-3.802 26.264,-11.299 6.521,-7.391 9.827,-18.377 9.827,-32.653 0,-17.777 -5.516,-33.031 -16.396,-45.341 -9.496,-10.702 -20.93,-16.125 -33.991,-16.125 -11.134,0 -20.152,3.755 -26.894,11.177 l -9.42,-45.131 z"
             style="fill:#0b9444;fill-opacity:1;fill-rule:nonzero;stroke:none"
             id="path58"
             inkscape:connector-curvature="0" /></g><g
           id="g60"
           transform="translate(416.2937,499.1505)"><path
             d="m 0,0 23.946,0 -3.842,-18.407 c 8.935,13.761 18.614,20.64 29.039,20.64 3.693,0 7.653,-0.923 11.884,-2.769 l -9.829,-20.998 c -2.324,0.835 -4.796,1.252 -7.416,1.252 -4.409,0 -8.89,-1.669 -13.447,-5.004 -4.557,-3.337 -8.117,-7.789 -10.678,-13.358 -2.562,-5.571 -5.092,-14.4 -7.594,-26.492 l -6.255,-29.754 -25.644,0 L 0,0 z"
             style="fill:#0b9444;fill-opacity:1;fill-rule:nonzero;stroke:none"
             id="path62"
             inkscape:connector-curvature="0" /></g><g
           id="g64"
           transform="translate(400.1884,407.2919)"><path
             d="m 0,0 19.453,0 5.749,27.346 c 2.571,12.424 5.125,21.303 7.807,27.135 2.765,6.015 6.681,10.905 11.64,14.537 5.069,3.709 10.196,5.59 15.238,5.59 1.985,0 3.918,-0.216 5.772,-0.647 l 7.353,15.71 c -2.746,0.924 -5.348,1.39 -7.764,1.39 -9.284,0 -18.199,-6.48 -26.497,-19.259 l -8.817,-13.582 6.389,30.608 -17.755,0 L 0,0 z m 24.374,-6.062 -31.835,0 21.104,100.952 30.137,0 -1.933,-9.265 c 7.287,7.64 15.124,11.498 23.401,11.498 4.093,0 8.499,-1.017 13.096,-3.022 l 2.853,-1.245 -12.319,-26.317 -2.6,0.934 c -1.983,0.712 -4.133,1.073 -6.391,1.073 -3.728,0 -7.65,-1.488 -11.657,-4.42 C 44.114,61.113 40.846,57.015 38.517,51.949 36.063,46.614 33.58,37.92 31.136,26.108 l -6.762,-32.17 z"
             style="fill:#0b9444;fill-opacity:1;fill-rule:nonzero;stroke:none"
             id="path66"
             inkscape:connector-curvature="0" /></g><g
           id="g68"
           transform="translate(539.8648,459.3905)"><path
             d="m 0,0 c 0.059,1.131 0.09,1.995 0.09,2.59 0,7.028 -1.58,12.3 -4.736,15.815 -3.158,3.515 -7.386,5.272 -12.688,5.272 -5.302,0 -10.052,-1.997 -14.251,-5.987 C -35.785,13.699 -38.63,7.803 -40.118,0 L 0,0 z m 21.623,-15.638 -64.332,0 c -0.06,-1.012 -0.089,-1.786 -0.089,-2.322 0,-6.315 1.801,-11.407 5.405,-15.279 3.603,-3.873 7.997,-5.808 13.18,-5.808 8.517,0 15.158,4.408 19.925,13.224 l 22.962,-3.842 C 14.207,-38.899 8.235,-45.823 0.76,-50.438 c -7.476,-4.618 -15.86,-6.925 -25.153,-6.925 -12.747,0 -23.112,4.035 -31.093,12.106 -7.983,8.071 -11.973,18.749 -11.973,32.032 0,12.985 3.603,24.541 10.812,34.669 9.827,13.7 23.856,20.549 42.083,20.549 11.616,0 20.848,-3.589 27.699,-10.765 6.849,-7.18 10.275,-17.232 10.275,-30.156 0,-6.196 -0.596,-11.765 -1.787,-16.71"
             style="fill:#0b9444;fill-opacity:1;fill-rule:nonzero;stroke:none"
             id="path70"
             inkscape:connector-curvature="0" /></g><g
           id="g72"
           transform="translate(503.5532,462.4215)"><path
             d="m 0,0 33.368,0 c -0.062,6.003 -1.393,10.493 -3.958,13.35 -2.579,2.869 -5.991,4.265 -10.432,4.265 -4.535,0 -8.514,-1.686 -12.164,-5.153 C 3.755,9.553 1.47,5.372 0,0 m 39.188,-6.062 -46.658,0 0.686,3.599 c 1.602,8.399 4.772,14.899 9.422,19.319 4.763,4.527 10.261,6.821 16.34,6.821 6.173,0 11.2,-2.112 14.943,-6.277 3.657,-4.074 5.511,-10.076 5.511,-17.841 0,-0.632 -0.031,-1.548 -0.094,-2.748 l -0.15,-2.873 z m -17.44,41.993 c -17.352,0 -30.312,-6.307 -39.621,-19.286 -6.795,-9.545 -10.243,-20.619 -10.243,-32.901 0,-12.397 3.733,-22.456 11.096,-29.9 7.457,-7.541 16.923,-11.207 28.939,-11.207 8.68,0 16.606,2.177 23.56,6.472 5.941,3.669 10.931,9.006 14.874,15.897 L 33.6,-32.191 c -5.244,-8.574 -12.469,-12.918 -21.502,-12.918 -6.036,0 -11.217,2.28 -15.398,6.774 -4.126,4.431 -6.218,10.267 -6.218,17.344 0,0.577 0.031,1.411 0.095,2.501 l 0.169,2.852 64.745,0 c 0.796,4.118 1.199,8.707 1.199,13.678 0,12.059 -3.175,21.5 -9.437,28.064 -6.312,6.613 -14.655,9.827 -25.505,9.827 m -9.829,-99.356 c -13.528,0 -24.715,4.376 -33.249,13.006 -8.525,8.62 -12.848,20.113 -12.848,34.163 0,13.568 3.826,25.823 11.373,36.427 10.389,14.483 25.377,21.822 44.553,21.822 12.421,0 22.477,-3.938 29.891,-11.704 7.374,-7.729 11.113,-18.579 11.113,-32.249 0,-6.405 -0.629,-12.264 -1.871,-17.419 l -0.56,-2.321 -63.769,0 c 0.124,-5.231 1.627,-9.328 4.585,-12.504 3.031,-3.259 6.617,-4.843 10.961,-4.843 7.381,0 13.026,3.805 17.259,11.635 l 1.03,1.904 29.089,-4.866 -1.762,-3.642 c -4.701,-9.718 -11.111,-17.131 -19.05,-22.033 -7.925,-4.894 -16.924,-7.376 -26.745,-7.376"
             style="fill:#0b9444;fill-opacity:1;fill-rule:nonzero;stroke:none"
             id="path74"
             inkscape:connector-curvature="0" /></g><g
           id="g76"
           transform="translate(567.5635,430.7986)"><path
             d="m 0,0 24.839,3.931 c 2.203,-5.242 4.944,-8.951 8.221,-11.124 3.275,-2.175 7.743,-3.262 13.402,-3.262 5.837,0 10.513,1.31 14.028,3.931 2.442,1.788 3.664,3.962 3.664,6.524 0,1.726 -0.625,3.275 -1.877,4.646 -1.31,1.309 -4.856,2.917 -10.632,4.824 -15.489,5.123 -25.078,9.173 -28.771,12.153 -5.779,4.645 -8.667,10.721 -8.667,18.226 0,7.506 2.799,13.968 8.399,19.389 7.803,7.564 19.389,11.347 34.757,11.347 12.211,0 21.444,-2.233 27.699,-6.7 C 91.316,59.417 95.277,53.37 96.945,45.746 L 73.268,41.637 c -1.252,3.454 -3.277,6.044 -6.076,7.772 -3.813,2.324 -8.399,3.486 -13.761,3.486 -5.36,0 -9.218,-0.894 -11.57,-2.68 -2.354,-1.788 -3.529,-3.842 -3.529,-6.166 0,-2.383 1.19,-4.348 3.573,-5.898 1.489,-0.953 6.284,-2.621 14.386,-5.002 12.509,-3.635 20.877,-7.209 25.107,-10.723 5.956,-4.944 8.935,-10.901 8.935,-17.871 0,-8.994 -3.783,-16.796 -11.347,-23.409 -7.565,-6.612 -18.228,-9.917 -31.987,-9.917 -13.701,0 -24.29,2.516 -31.765,7.549 C 7.758,-16.188 2.681,-9.114 0,0"
             style="fill:#0b9444;fill-opacity:1;fill-rule:nonzero;stroke:none"
             id="path78"
             inkscape:connector-curvature="0" /></g><g
           id="g80"
           transform="translate(571.5832,428.3655)"><path
             d="m 0,0 c 2.652,-6.882 6.898,-12.228 12.908,-16.274 6.929,-4.666 17.047,-7.033 30.071,-7.033 12.942,0 23.032,3.084 29.992,9.169 6.939,6.065 10.312,12.976 10.312,21.127 0,6.076 -2.565,11.159 -7.84,15.538 -3.89,3.231 -11.97,6.644 -24.018,10.144 -11.146,3.276 -13.963,4.586 -15.173,5.36 -4.112,2.675 -4.971,6.07 -4.971,8.451 0,2.276 0.82,5.612 4.727,8.58 2.922,2.218 7.306,3.297 13.404,3.297 5.9,0 11.06,-1.322 15.338,-3.928 2.711,-1.675 4.83,-4.011 6.33,-6.968 l 18.05,3.133 c -1.801,5.466 -5.044,9.823 -9.85,13.257 -5.7,4.07 -14.427,6.134 -25.937,6.134 -14.481,0 -25.465,-3.53 -32.647,-10.491 -5.032,-4.873 -7.477,-10.502 -7.477,-17.214 0,-6.598 2.464,-11.788 7.534,-15.864 2.336,-1.884 9.055,-5.43 27.824,-11.637 8.289,-2.737 10.672,-4.408 11.824,-5.558 1.866,-2.041 2.764,-4.292 2.764,-6.79 0,-2.454 -0.851,-6.001 -4.904,-8.969 -4.011,-2.992 -9.341,-4.517 -15.819,-4.517 -6.241,0 -11.315,1.269 -15.078,3.768 -3.276,2.173 -6.08,5.629 -8.352,10.294 L 0,0 z m 42.979,-29.369 c -14.252,0 -25.509,2.714 -33.457,8.066 -8.041,5.414 -13.576,13.113 -16.45,22.881 l -0.973,3.309 30.594,4.842 0.921,-2.191 c 1.957,-4.658 4.347,-7.945 7.102,-9.771 2.754,-1.831 6.699,-2.758 11.726,-2.758 5.143,0 9.254,1.121 12.216,3.33 2.194,1.606 2.445,3.105 2.445,4.094 0,0.965 -0.344,1.792 -1.084,2.602 -0.245,0.241 -1.933,1.544 -9.344,3.99 -15.985,5.286 -25.708,9.432 -29.724,12.672 -6.498,5.224 -9.795,12.15 -9.795,20.585 0,8.323 3.137,15.58 9.322,21.566 8.35,8.096 20.754,12.201 36.865,12.201 12.799,0 22.711,-2.443 29.46,-7.263 6.855,-4.898 11.257,-11.612 13.083,-19.958 l 0.677,-3.093 -29.3,-5.086 -0.865,2.388 c -1.02,2.818 -2.597,4.854 -4.819,6.226 -3.297,2.01 -7.396,3.034 -12.167,3.034 -5.803,0 -8.498,-1.122 -9.738,-2.063 -2.089,-1.587 -2.331,-2.901 -2.331,-3.752 0,-0.898 0.25,-2.091 2.195,-3.357 0.545,-0.347 2.996,-1.522 13.588,-4.635 13.024,-3.784 21.593,-7.481 26.189,-11.3 6.655,-5.524 10.03,-12.321 10.03,-20.201 0,-9.865 -4.167,-18.508 -12.384,-25.692 C 68.864,-25.78 57.43,-29.369 42.979,-29.369"
             style="fill:#0b9444;fill-opacity:1;fill-rule:nonzero;stroke:none"
             id="path82"
             inkscape:connector-curvature="0" /></g><g
           id="g84"
           transform="translate(669.3329,430.7986)"><path
             d="m 0,0 24.839,3.931 c 2.203,-5.242 4.944,-8.951 8.221,-11.124 3.275,-2.175 7.743,-3.262 13.403,-3.262 5.837,0 10.511,1.31 14.027,3.931 2.442,1.788 3.665,3.962 3.665,6.524 0,1.726 -0.628,3.275 -1.877,4.646 -1.311,1.309 -4.857,2.917 -10.632,4.824 -15.49,5.123 -25.079,9.173 -28.772,12.153 -5.779,4.645 -8.667,10.721 -8.667,18.226 0,7.506 2.799,13.968 8.399,19.389 7.803,7.564 19.39,11.347 34.758,11.347 12.21,0 21.443,-2.233 27.697,-6.7 C 91.315,59.417 95.276,53.37 96.945,45.746 L 73.268,41.637 c -1.252,3.454 -3.276,6.044 -6.076,7.772 -3.813,2.324 -8.398,3.486 -13.761,3.486 -5.361,0 -9.218,-0.894 -11.571,-2.68 -2.353,-1.788 -3.528,-3.842 -3.528,-6.166 0,-2.383 1.19,-4.348 3.572,-5.898 1.489,-0.953 6.284,-2.621 14.386,-5.002 12.509,-3.635 20.877,-7.209 25.109,-10.723 5.956,-4.944 8.934,-10.901 8.934,-17.871 0,-8.994 -3.783,-16.796 -11.346,-23.409 -7.566,-6.612 -18.227,-9.917 -31.988,-9.917 -13.701,0 -24.29,2.516 -31.765,7.549 C 7.758,-16.188 2.681,-9.114 0,0"
             style="fill:#0b9444;fill-opacity:1;fill-rule:nonzero;stroke:none"
             id="path86"
             inkscape:connector-curvature="0" /></g><g
           id="g88"
           transform="translate(673.3525,428.3655)"><path
             d="m 0,0 c 2.652,-6.882 6.897,-12.228 12.908,-16.274 6.929,-4.666 17.047,-7.033 30.071,-7.033 12.941,0 23.033,3.084 29.993,9.169 6.937,6.065 10.31,12.976 10.31,21.127 0,6.076 -2.563,11.159 -7.838,15.538 -3.892,3.231 -11.973,6.644 -24.019,10.144 -11.147,3.276 -13.964,4.586 -15.174,5.36 -4.111,2.673 -4.97,6.07 -4.97,8.451 0,2.276 0.82,5.612 4.726,8.58 2.923,2.218 7.308,3.297 13.404,3.297 5.901,0 11.061,-1.322 15.339,-3.928 2.711,-1.674 4.83,-4.009 6.329,-6.968 l 18.05,3.133 c -1.801,5.466 -5.043,9.823 -9.849,13.257 -5.701,4.07 -14.427,6.134 -25.935,6.134 -14.483,0 -25.467,-3.53 -32.649,-10.491 -5.032,-4.873 -7.477,-10.502 -7.477,-17.214 0,-6.598 2.464,-11.788 7.534,-15.864 2.336,-1.884 9.055,-5.43 27.825,-11.637 8.288,-2.737 10.672,-4.408 11.822,-5.558 1.869,-2.045 2.766,-4.295 2.766,-6.79 0,-2.454 -0.851,-6.001 -4.905,-8.969 -4.013,-2.992 -9.343,-4.517 -15.818,-4.517 -6.242,0 -11.316,1.269 -15.079,3.768 -3.276,2.173 -6.08,5.629 -8.352,10.294 L 0,0 z m 42.979,-29.369 c -14.252,0 -25.509,2.714 -33.458,8.066 -8.04,5.414 -13.575,13.113 -16.449,22.881 l -0.973,3.309 30.594,4.842 0.921,-2.191 c 1.957,-4.658 4.347,-7.945 7.102,-9.771 2.754,-1.831 6.7,-2.758 11.727,-2.758 5.142,0 9.252,1.121 12.216,3.33 2.193,1.606 2.445,3.105 2.445,4.094 0,0.964 -0.345,1.791 -1.086,2.603 -0.243,0.239 -1.932,1.541 -9.342,3.989 -15.986,5.286 -25.709,9.432 -29.725,12.672 -6.498,5.224 -9.795,12.15 -9.795,20.585 0,8.323 3.137,15.58 9.322,21.566 8.35,8.096 20.754,12.201 36.867,12.201 12.797,0 22.709,-2.443 29.457,-7.263 6.854,-4.898 11.257,-11.612 13.085,-19.958 L 96.563,45.735 67.264,40.649 66.4,43.037 c -1.023,2.819 -2.599,4.855 -4.821,6.226 -3.297,2.01 -7.397,3.034 -12.168,3.034 -5.802,0 -8.498,-1.122 -9.738,-2.063 -2.089,-1.587 -2.33,-2.901 -2.33,-3.752 0,-0.898 0.25,-2.093 2.195,-3.357 0.543,-0.347 2.995,-1.522 13.588,-4.635 13.021,-3.784 21.59,-7.48 26.19,-11.298 6.654,-5.525 10.028,-12.323 10.028,-20.203 0,-9.865 -4.166,-18.508 -12.382,-25.692 -8.098,-7.077 -19.531,-10.666 -33.983,-10.666"
             style="fill:#0b9444;fill-opacity:1;fill-rule:nonzero;stroke:none"
             id="path90"
             inkscape:connector-curvature="0" /></g><g
           id="g92"
           transform="translate(93.8282,288.8053)"><path
             d="m 0,0 13.389,0 c 6.04,0 11.407,0.558 16.101,1.674 2.924,0.693 5.425,1.711 7.502,3.059 2.732,1.73 5.214,4.02 7.445,6.867 2.923,3.77 5.261,8.069 7.012,12.898 1.751,4.828 2.626,10.32 2.626,16.477 0,6.848 -1.193,12.109 -3.578,15.784 -2.386,3.673 -5.425,6.107 -9.119,7.299 -2.732,0.885 -6.982,1.328 -12.754,1.328 l -14.947,0 L 0,0 z m -13.331,-9.58 17.659,84.604 25.509,0 c 6.117,0 10.792,-0.443 14.023,-1.328 4.617,-1.193 8.561,-3.318 11.831,-6.377 3.27,-3.058 5.732,-6.878 7.387,-11.455 1.654,-4.579 2.481,-9.715 2.481,-15.408 0,-6.811 -1.029,-13.014 -3.087,-18.613 C 60.413,16.246 57.72,11.32 54.393,7.07 51.064,2.818 47.582,-0.511 43.947,-2.914 40.311,-5.319 36.012,-7.098 31.049,-8.252 27.278,-9.137 22.642,-9.58 17.141,-9.58 l -30.472,0 z"
             style="fill:#0b9444;fill-opacity:1;fill-rule:nonzero;stroke:none"
             id="path94"
             inkscape:connector-curvature="0" /></g><g
           id="g96"
           transform="translate(165.9089,279.2253)"><path
             d="m 0,0 17.717,84.604 61.058,0 -2.02,-9.638 -49.747,0 -5.54,-26.316 48.477,0 -2.019,-9.637 -48.477,0 L 13.331,9.58 66.598,9.58 64.578,0 0,0 z"
             style="fill:#0b9444;fill-opacity:1;fill-rule:nonzero;stroke:none"
             id="path98"
             inkscape:connector-curvature="0" /></g><g
           id="g100"
           transform="translate(244.1649,279.2253)"><path
             d="m 0,0 17.659,84.604 11.312,0 L 13.331,9.58 57.249,9.58 55.229,0 0,0 z"
             style="fill:#0b9444;fill-opacity:1;fill-rule:nonzero;stroke:none"
             id="path102"
             inkscape:connector-curvature="0" /></g><g
           id="g104"
           transform="translate(341.6378,279.2253)"><path
             d="m 0,0 17.717,84.604 10.965,0 14.255,-31.742 c 4.346,-9.695 7.79,-17.851 10.33,-24.468 1.462,-3.848 3.154,-9.042 5.079,-15.582 1.038,7.118 2.345,14.466 3.924,22.045 l 10.388,49.747 11.022,0 L 66.021,0 54.825,0 33.819,48.881 C 30.086,57.499 27.181,65.097 25.104,71.677 24.527,66.175 23.41,59.422 21.757,51.421 L 11.022,0 0,0 z"
             style="fill:#0b9444;fill-opacity:1;fill-rule:nonzero;stroke:none"
             id="path106"
             inkscape:connector-curvature="0" /></g><g
           id="g108"
           transform="translate(443.1511,314.0821)"><path
             d="m 0,0 c 0,-4.962 1.029,-9.522 3.088,-13.677 2.058,-4.155 5.126,-7.407 9.205,-9.753 4.077,-2.347 8.368,-3.521 12.869,-3.521 4.348,0 8.483,1.029 12.408,3.088 3.925,2.058 7.435,4.925 10.532,8.598 3.097,3.675 5.54,8.197 7.33,13.563 1.788,5.366 2.683,10.647 2.683,15.842 0,8.425 -2.357,15.139 -7.069,20.141 -4.714,5.001 -10.533,7.502 -17.458,7.502 -8.85,0 -16.66,-3.78 -23.431,-11.34 C 3.385,22.882 0,12.735 0,0 m -11.138,0.577 c 0,15.083 4.357,27.288 13.072,36.618 8.714,9.33 19.284,13.995 31.711,13.995 10.542,0 19.131,-3.434 25.768,-10.301 6.638,-6.868 9.956,-16.073 9.956,-27.615 0,-8.233 -1.674,-15.87 -5.021,-22.912 -2.501,-5.27 -5.656,-9.819 -9.465,-13.648 -3.809,-3.829 -7.887,-6.782 -12.235,-8.858 -5.77,-2.77 -11.888,-4.156 -18.352,-4.156 -6.771,0 -12.936,1.616 -18.496,4.849 -5.559,3.231 -9.773,7.742 -12.638,13.533 -2.867,5.789 -4.3,11.955 -4.3,18.495"
             style="fill:#0b9444;fill-opacity:1;fill-rule:nonzero;stroke:none"
             id="path110"
             inkscape:connector-curvature="0" /></g><g
           id="g112"
           transform="translate(539.7582,325.9709)"><path
             d="m 0,0 15.64,0 c 7.232,0 11.946,0.096 14.139,0.289 4.27,0.423 7.771,1.385 10.503,2.886 2.732,1.5 4.848,3.519 6.349,6.059 1.5,2.539 2.25,5.27 2.25,8.194 0,2.463 -0.558,4.608 -1.673,6.435 -1.117,1.828 -2.578,3.068 -4.387,3.723 -1.808,0.654 -4.886,0.981 -9.233,0.981 l -27.586,0 L 0,0 z m -21.064,-46.746 17.717,84.604 35.492,0 c 7.002,0 12.312,-0.586 15.928,-1.76 3.616,-1.173 6.454,-3.375 8.513,-6.608 2.057,-3.232 3.087,-7.309 3.087,-12.235 0,-6.886 -2.251,-12.6 -6.752,-17.14 -4.502,-4.54 -11.773,-7.482 -21.815,-8.829 3.078,-2.27 5.405,-4.502 6.983,-6.694 3.539,-4.964 6.386,-10.1 8.542,-15.41 l 6.463,-15.928 -12.638,0 -6.06,15.755 c -2.193,5.694 -4.695,10.619 -7.502,14.775 -1.925,2.886 -3.887,4.78 -5.887,5.684 -2.001,0.903 -5.252,1.356 -9.753,1.356 l -13.158,0 -7.849,-37.57 -11.311,0 z"
             style="fill:#0b9444;fill-opacity:1;fill-rule:nonzero;stroke:none"
             id="path114"
             inkscape:connector-curvature="0" /></g><g
           id="g116"
           transform="translate(623.2083,279.2253)"><path
             d="m 0,0 15.64,74.966 -27.759,0 2.02,9.638 66.598,0 -2.02,-9.638 -27.528,0 L 11.312,0 0,0 z"
             style="fill:#0b9444;fill-opacity:1;fill-rule:nonzero;stroke:none"
             id="path118"
             inkscape:connector-curvature="0" /></g><g
           id="g120"
           transform="translate(673.8787,279.2253)"><path
             d="m 0,0 17.717,84.604 61.058,0 -2.02,-9.638 -49.747,0 -5.54,-26.316 48.477,0 -2.02,-9.637 -48.476,0 L 13.331,9.58 66.597,9.58 64.579,0 0,0 z"
             style="fill:#0b9444;fill-opacity:1;fill-rule:nonzero;stroke:none"
             id="path122"
             inkscape:connector-curvature="0" /></g><g
           id="g124"
           transform="translate(622.607,596.8135)"><path
             d="M 0,0 C 0,0 283.361,-79.657 244.549,-253.386 205.737,-427.115 4.285,-408.633 -372.744,-388.303 c 0,0 623.453,-136.766 672.738,129.372 0,0 49.584,201.429 -282.772,323.433 L 0,0 z"
             style="fill:#ebebeb;fill-opacity:1;fill-rule:nonzero;stroke:none"
             id="path126"
             inkscape:connector-curvature="0" /></g><g
           id="g128"
           transform="translate(646.0023,677.5298)"><path
             d="m 0,0 6.567,29.251 c 0,0 180.851,-107.047 224.801,-184.843 C 231.368,-155.592 75.27,-10.609 0,0"
             style="fill:#ebebeb;fill-opacity:1;fill-rule:nonzero;stroke:none"
             id="path130"
             inkscape:connector-curvature="0" /></g><g
           id="g132"
           transform="translate(654.5902,714.9124)"><path
             d="m 0,0 0,10.103 c 0,0 125.787,-70.218 153.572,-106.59 0,0 -130.839,94.971 -153.572,96.487"
             style="fill:#ebebeb;fill-opacity:1;fill-rule:nonzero;stroke:none"
             id="path134"
             inkscape:connector-curvature="0" /></g></g></g></g></svg>